<?xml version="1.0" encoding="UTF-8" standalone="no"?>
<!-- Created with Inkscape (http://www.inkscape.org/) -->

<svg
   width="300"
   height="86"
   viewBox="0 0 79.375068 22.754181"
   version="1.1"
   id="svg1"
   inkscape:version="1.3 (0e150ed6c4, 2023-07-21)"
   sodipodi:docname="segment_sniper_pro_logo.svg"
   xmlns:inkscape="http://www.inkscape.org/namespaces/inkscape"
   xmlns:sodipodi="http://sodipodi.sourceforge.net/DTD/sodipodi-0.dtd"
   xmlns="http://www.w3.org/2000/svg"
   xmlns:svg="http://www.w3.org/2000/svg">
  <sodipodi:namedview
     id="namedview1"
     pagecolor="#ffffff"
     bordercolor="#000000"
     borderopacity="0.25"
     inkscape:showpageshadow="2"
     inkscape:pageopacity="0.0"
     inkscape:pagecheckerboard="0"
     inkscape:deskcolor="#d1d1d1"
     inkscape:document-units="px"
     showgrid="true"
     inkscape:zoom="5.6568543"
     inkscape:cx="234.05234"
     inkscape:cy="66.026096"
     inkscape:window-width="1920"
     inkscape:window-height="1009"
     inkscape:window-x="1072"
     inkscape:window-y="828"
     inkscape:window-maximized="1"
     inkscape:current-layer="layer5">
    <inkscape:grid
       id="grid1"
       units="px"
       originx="0"
       originy="0"
       spacingx="0.26458345"
       spacingy="0.26458333"
       empcolor="#0099e5"
       empopacity="0.30196078"
       color="#0099e5"
       opacity="0.14901961"
       empspacing="5"
       dotted="false"
       gridanglex="30"
       gridanglez="30"
       visible="true" />
  </sodipodi:namedview>
  <defs
     id="defs1">
    <rect
       x="320.32541"
       y="79.908768"
       width="7.0761547"
       height="30.375687"
       id="rect247" />
    <rect
       x="216.25301"
       y="41.49324"
       width="164.50848"
       height="33.682747"
       id="rect244" />
    <rect
       x="214.3557"
       y="39.695499"
       width="148.08147"
       height="33.482292"
       id="rect243" />
    <clipPath
       clipPathUnits="userSpaceOnUse"
       id="clipPath126">
      <path
         id="path127"
         style="fill:#ff0000;fill-opacity:1;fill-rule:nonzero;stroke:none;stroke-width:0.264583"
         d="m 25.027935,13.144937 v 0.134359 c 0.01419,-0.01578 0.02818,-0.03166 0.04289,-0.04703 6.09e-4,-6.09e-4 9e-4,-0.0015 0.0016,-0.0021 -0.04715,-0.01426 -0.04126,-0.07227 0.02532,-0.077 0.0017,-1.18e-4 0.0035,-3.97e-4 0.0052,-5.29e-4 0.01461,-0.0014 0.02925,-0.0042 0.04393,-0.0052 0.0043,-5.03e-4 0.0087,-0.0011 0.01292,-0.0016 3.7e-4,-3.18e-4 6.88e-4,-7.68e-4 0.001,-10e-4 z m 0.227893,0 c -0.0022,-6.8e-5 -0.0071,0.0025 -0.01137,0.0047 0.0052,7.68e-4 0.01032,0.0018 0.0155,0.0026 1.28e-4,-0.0042 -5.29e-4,-0.0071 -0.0041,-0.0072 z m 0.04341,0 c 0.0028,0.0045 0.0049,0.01114 0.0072,0.01757 0.0029,9.79e-4 0.0059,0.0019 0.0088,0.0031 0.01178,0.0039 0.02385,0.0075 0.03566,0.01137 8.99e-4,2.91e-4 0.0018,4.23e-4 0.0026,10e-4 5.02e-4,3.97e-4 -0.0021,0.0011 -0.0016,10e-4 0.0072,-6.09e-4 0.01399,-0.0041 0.02119,-0.0047 0.01465,-0.0019 0.02991,-0.0032 0.04341,0.0052 0.01508,0.0094 0.02027,0.01946 0.02377,0.03617 9.26e-4,0.0045 10e-6,0.0088 0,0.01344 -7.94e-4,0.0039 -0.0014,0.008 -0.0026,0.01189 -0.0049,0.01595 -0.01533,0.02941 -0.02635,0.04186 0.01153,0.0035 0.02312,0.0069 0.03462,0.01033 6.88e-4,-1.1e-5 0.0012,-3.1e-5 10e-4,5.29e-4 0.002,6.09e-4 0.0042,7.15e-4 0.0062,0.0016 -0.0043,0.01675 -0.0081,0.03389 -0.0124,0.05064 0.01457,0.0014 0.02894,0.0034 0.04341,0.0057 0.0059,8.99e-4 0.01279,2.91e-4 0.01809,0.0031 0.01075,0.0057 0.02815,0.0096 0.02894,0.0217 4.24e-4,0.0066 -9.26e-4,0.01293 -0.0031,0.01912 0.03278,0.0069 0.04153,0.03851 0.0047,0.06511 0.0028,-0.0011 0.0048,-0.0019 0.0078,-0.0031 0.02786,-0.01075 0.05526,-0.02177 0.08268,-0.03359 0.01135,-0.0049 0.0219,-0.0074 0.03101,-0.0078 0.03861,-0.0014 0.05401,0.03279 0.02945,0.06046 0.0066,0.01009 0.0092,0.02233 0.0057,0.03514 8.73e-4,-1.22e-4 0.0017,-4.5e-4 0.0026,-5.3e-4 0.03598,-0.0033 0.05464,0.02997 0.03152,0.06046 0.0022,-5.29e-4 0.0046,-0.0019 0.0067,-0.0021 0.02707,-0.0019 0.03955,0.02849 0.0098,0.05736 3.97e-4,6.88e-4 0.001,0.0013 0.001,0.0021 0.0084,-0.0057 0.01613,-0.0098 0.02325,-0.01085 0.0021,-3.17e-4 0.0038,-5.29e-4 0.0057,-5.29e-4 0.01538,6.9e-5 0.0249,0.01073 0.02532,0.02429 0.01706,0.0085 0.01968,0.03373 -0.0088,0.05581 -0.01668,0.013 -0.03503,0.0234 -0.05323,0.03411 -0.01086,0.006 -0.02126,0.01288 -0.03204,0.01912 -0.0046,0.0049 -0.0095,0.0095 -0.01447,0.01395 -0.01161,0.01064 -0.02417,0.01981 -0.03773,0.02791 -0.0078,0.0051 -0.01497,0.0111 -0.02067,0.0186 -0.0086,0.0105 -0.01656,0.02151 -0.02636,0.03101 -0.01123,0.01015 -0.02347,0.01919 -0.03617,0.02739 -0.01156,0.0075 -0.02339,0.01382 -0.03721,0.01602 -0.01066,0.0017 -0.02008,0.0015 -0.02842,0 -0.0039,0.0082 -0.0075,0.01651 -0.01085,0.02481 -0.0061,0.01269 -0.0083,0.02613 -0.01085,0.03979 -0.0019,0.01072 -0.0036,0.02188 -0.0057,0.03256 -0.01142,0.05822 -0.07042,0.04625 -0.05891,-0.01188 0.0021,-0.01051 0.0038,-0.02098 0.0057,-0.03152 0.0033,-0.01761 0.007,-0.03526 0.01447,-0.05168 0.0039,-0.0095 0.0076,-0.01909 0.01188,-0.02842 -0.0029,-0.0053 0.0064,-0.02102 0.01137,-0.03514 -3.44e-4,1.56e-4 -9.79e-4,3.71e-4 -0.001,5.29e-4 -0.0052,0.0021 -0.01103,0.0028 -0.01654,0.0041 -0.0041,-4.24e-4 -0.0078,-9.79e-4 -0.01188,-10e-4 -0.01431,-0.0013 -0.01732,-0.0062 -0.01499,-0.0124 -0.01536,0.0091 -0.0387,0.02346 -0.05788,0.01447 -0.01378,-0.0065 -0.02045,-0.02316 -0.03049,-0.03462 1.78e-4,-0.0067 3.44e-4,-0.01304 0.001,-0.01964 -0.0052,0.0026 -0.01402,0.0067 -0.01705,0.0078 -0.0038,0.0013 -0.008,0.0025 -0.01188,0.0036 v -5.29e-4 c -0.07606,0.02175 0.06682,-0.09108 -0.01137,-0.07906 -0.0014,2.2e-4 -0.0028,0.0018 -0.0041,10e-4 -8.99e-4,-5.03e-4 0.0021,-0.0011 0.0031,-0.0016 0.0032,-0.0016 0.0065,-0.0036 0.0098,-0.0052 5.55e-4,-2.64e-4 6.88e-4,-9.26e-4 0.0016,-10e-4 -0.01259,0.0035 -0.02381,0.0047 -0.03307,0.0031 -0.02331,0.01469 -0.04617,0.03015 -0.07028,0.04341 -0.06932,0.03812 -0.113799,-0.02485 -0.04599,-0.06563 0.0035,-0.0021 0.0067,-0.0041 0.01034,-0.0062 0.01666,-0.0096 0.01446,-0.0077 0.03256,-0.0186 0.02286,-0.01381 0.03974,-0.025 0.06304,-0.03979 0.01327,-0.0084 0.02648,-0.01696 0.03979,-0.02532 -0.0153,0.0013 -0.03433,0.0019 -0.04031,-0.0057 -0.0035,-0.0044 -0.0063,-0.0085 -0.0088,-0.0124 -0.007,0.0052 -0.01415,0.0103 -0.02119,0.0155 -0.04396,0.03219 -0.0877,0.06673 -0.140042,0.08423 -0.02384,0.008 -0.04204,0.0061 -0.05374,-0.001 v 6.215134 h 6.805789 v -6.742742 z m 0.06304,0.06925 c -4.5e-4,8.47e-4 -8.47e-4,0.0022 -0.001,0.0026 -1.46e-4,7.67e-4 8.7e-5,0.0013 0,0.0021 9e-4,-0.0015 0.0012,-0.0032 0.0016,-0.0047 z m -0.03979,0.03772 c -5.56e-4,0.0013 -0.0013,0.0024 -0.0021,0.0036 0.0015,-9.26e-4 0.0031,-0.0016 0.0047,-0.0026 -8.99e-4,-2.65e-4 -0.0017,-7.67e-4 -0.0026,-0.001 z m -0.269234,0.141077 c -0.0046,0.002 -0.0093,0.0039 -0.01395,0.0057 -0.0043,0.0017 -0.0079,0.0033 -0.01137,0.0047 v 0.04858 c 0.0073,-0.0081 0.015,-0.01592 0.02274,-0.02377 0.0058,-0.0061 0.01191,-0.01186 0.01809,-0.01757 -0.0051,-0.0026 -0.0095,-0.0057 -0.01292,-0.01033 -0.0017,-0.0023 -0.0019,-0.0047 -0.0026,-0.0072 z m 0.02739,0.119372 c -7.41e-4,8.73e-4 -0.0013,0.0017 -0.0021,0.0026 -0.01731,0.02057 -0.0358,0.02809 -0.05064,0.02687 v 0.07441 c 0.0073,-0.0072 0.01737,-0.01375 0.03049,-0.01912 0.01029,-0.0042 0.02069,-0.0081 0.03049,-0.01343 0.03036,-0.01655 0.05802,-0.03854 0.08578,-0.05891 0.0012,-8.74e-4 0.0024,-0.0017 0.0036,-0.0026 -0.0048,0.0019 -0.0096,0.0038 -0.01447,0.0057 -0.007,0.0027 -0.01389,0.0059 -0.02119,0.0078 -0.0077,0.0018 -0.01585,0.0059 -0.02325,0.0031 -0.01459,-0.0056 -0.02594,-0.01735 -0.03876,-0.02635 z m 0.221175,0.05891 c -6.35e-4,6.09e-4 -0.0016,7.94e-4 -0.0021,0.0016 -6.08e-4,6.09e-4 0.0021,-2.91e-4 0.0021,-10e-4 z" />
    </clipPath>
    <clipPath
       clipPathUnits="userSpaceOnUse"
       id="clipPath148">
      <path
         id="path149"
         style="fill:#ff0000;fill-opacity:1;fill-rule:nonzero;stroke:none;stroke-width:0.264583"
         d="m 27.142536,8.430495 c 0.0141,0.01289 0.0288,0.025479 0.04444,0.03669 0.03637,0.026478 0.07212,0.053335 0.109035,0.079065 0.04156,0.029767 0.08211,0.061269 0.120925,0.094568 0.03539,0.030718 0.07042,0.062107 0.106968,0.091467 0.0353,0.030452 0.07024,0.061043 0.106456,0.090434 0.03149,0.02604 0.06374,0.050911 0.0956,0.076481 0.02498,0.019611 0.04966,0.039945 0.0739,0.060461 0.02167,0.01883 0.04371,0.037185 0.06511,0.056328 0.0327,0.027854 0.064,0.057155 0.09457,0.087333 0.02429,0.023934 0.04813,0.048023 0.06976,0.074414 0.01945,0.023855 0.03724,0.049363 0.05581,0.073897 0.01725,0.02295 0.03563,0.045012 0.05323,0.067696 0.02421,0.030014 0.04805,0.060254 0.0739,0.088884 0.02442,0.028637 0.04904,0.056904 0.07493,0.084233 0.02048,0.021773 0.04238,0.041979 0.06356,0.063045 0.02093,0.020061 0.04206,0.04006 0.06408,0.058911 0.02564,0.019595 0.053,0.037324 0.07751,0.058395 0.02897,0.025868 0.05729,0.052899 0.08113,0.083716 0.02663,0.035866 0.05026,0.073486 0.07803,0.1085204 0.0176,0.022035 0.03405,0.046103 0.05736,0.062528 0.02826,0.015049 0.05739,0.028437 0.08423,0.045992 0.03183,0.021741 0.06109,0.043988 0.07907,0.075965 0.01847,-0.01427 0.03666,-0.02398 0.05374,-0.02532 0.06227,-0.0049 0.103375,0.06753 0.03876,0.15503 -7.94e-4,0.0011 -0.0019,0.002 -0.0026,0.0031 0.01204,0.118574 0.08539,-0.09047 0.128156,-0.09198 0.01,-3.44e-4 0.01831,0.01064 0.02376,0.03979 0.0019,0.0095 0.0054,0.01883 0.0062,0.02842 0.0049,-6.09e-4 0.01037,-0.0021 0.01497,-0.0021 0.0817,6.08e-4 0.110011,0.09923 0.0036,0.162264 -0.0063,0.0037 -0.01191,0.0079 -0.0181,0.01188 -0.01095,0.0058 -0.02098,0.0138 -0.03049,0.0217 -0.01638,0.01283 -0.03103,0.02751 -0.04702,0.04082 -0.01228,0.01009 -0.02458,0.02007 -0.03514,0.03204 -0.0136,0.01347 -0.02527,0.0283 -0.03824,0.04237 -0.01744,0.01866 -0.0356,0.03631 -0.05323,0.05478 -0.01638,0.01703 -0.03042,0.03645 -0.04393,0.05581 -0.01569,0.02106 -0.03017,0.04293 -0.04703,0.06304 -0.101708,0.121206 -0.231695,0.03504 -0.133326,-0.08888 0.0087,-0.01098 0.01699,-0.02231 0.02532,-0.03359 -0.027,0.0087 -0.05366,0.0096 -0.08423,-0.0031 -0.0013,9.52e-4 -0.0027,0.0022 -0.0041,0.0031 -0.13363,0.08471 -0.08807,0.01838 -0.07803,-0.139526 1.3e-5,-3.18e-4 2.24e-4,-8.73e-4 5.29e-4,-10e-4 0.0053,-0.0052 0.01061,-0.0099 0.01603,-0.01499 0.0092,-0.0088 0.01828,-0.01793 0.02739,-0.02687 -0.0098,-0.01352 -0.0199,-0.02679 -0.03101,-0.03927 -0.005,-0.0056 -0.01021,-0.01114 -0.01551,-0.01654 -0.03862,-0.03762 -0.07974,-0.07223 -0.122989,-0.104387 -0.05309,-0.03585 -0.103325,-0.07604 -0.150897,-0.118856 -0.04355,-0.03936 -0.08206,-0.083326 -0.120404,-0.1275084 -0.03399,-0.038304 -0.06647,-0.077954 -0.09922,-0.1173057 -0.0287,-0.035421 -0.05618,-0.071555 -0.08423,-0.107487 -0.02148,-0.027347 -0.0438,-0.054268 -0.06873,-0.078548 -0.03061,-0.026959 -0.06237,-0.052593 -0.0925,-0.080098 -0.02992,-0.027575 -0.05673,-0.0586 -0.0832,-0.0894 -0.02625,-0.028794 -0.05191,-0.057894 -0.07803,-0.086816 -0.02334,-0.024506 -0.04673,-0.048637 -0.06925,-0.073897 -0.01916,-0.023101 -0.03894,-0.045452 -0.05788,-0.06873 -0.015,-0.017994 -0.02779,-0.037954 -0.04083,-0.057361 -0.01468,-0.013343 -0.02909,-0.027306 -0.04082,-0.043408 -0.0011,-0.00153 -0.0021,-0.00311 -0.0031,-0.00465 -0.01,-0.00605 -0.02019,-0.011742 -0.02997,-0.018087 -0.05876,-0.039924 -0.114877,-0.082955 -0.167947,-0.1302248 -0.06666,-0.063261 -0.131159,-0.1291452 -0.19327,-0.196887 -0.02987,-0.033262 -0.0597,-0.066568 -0.08785,-0.1012857 -0.0083,-0.0069 -0.01633,-0.013994 -0.02429,-0.021188 V 19.887167 H 38.452899 V 8.430495 Z" />
    </clipPath>
    <clipPath
       clipPathUnits="userSpaceOnUse"
       id="clipPath192">
      <path
         id="path193"
         style="fill:#ff0000;fill-opacity:1;fill-rule:nonzero;stroke:none;stroke-width:0.264583"
         d="m 24.995379,7.6238257 v 6.4574883 c 0.03349,0.03253 0.06739,0.06452 0.101286,0.09663 0.0095,-0.02073 0.02917,-0.03455 0.05426,-0.03669 0.01727,-0.0015 0.03702,0.0027 0.05788,0.01395 -0.02604,-0.02722 -0.05298,-0.05359 -0.07803,-0.08165 -0.07317,-0.08197 -0.03777,-0.156254 0.02636,-0.156063 0.02913,8.6e-5 0.0642,0.01563 0.09767,0.05271 0.02587,0.02866 0.05331,0.05588 0.0801,0.08372 0.0024,-0.0052 0.0073,-0.009 0.01447,-0.0098 0.0048,-5.56e-4 0.01056,-1.6e-4 0.01705,0.0026 -0.01542,-0.01495 -0.0312,-0.02958 -0.04547,-0.04547 -0.0033,-0.004 -0.0062,-0.0078 -0.0093,-0.01188 -0.0014,-0.0018 -0.0108,-0.01559 -0.0124,-0.01809 -0.0019,-0.0031 -0.0057,-0.0098 -0.0072,-0.01344 -8.99e-4,-0.0021 -0.0013,-0.0045 -0.0021,-0.0067 -0.0039,-0.01173 -0.004,-0.01649 -5.29e-4,-0.01705 0.0045,-7.14e-4 0.01494,0.0059 0.02894,0.01344 1.26e-4,3.17e-4 0.0011,0.0014 0.0021,0.0031 0.0045,0.0077 0.0091,0.01564 0.01447,0.02274 0.0025,0.0034 0.0056,0.0066 0.0083,0.0098 0.01149,0.01263 0.024,0.02423 0.03617,0.03617 -0.0023,-0.01015 0.001,-0.01778 0.0067,-0.0217 -8.73e-4,-0.0042 7.68e-4,-0.007 10e-4,-0.01033 v -5.29e-4 c -0.01021,-0.02438 0.0011,-0.04393 0.01912,-0.04444 0.0025,-7.2e-5 0.0049,7.41e-4 0.0078,10e-4 -0.0088,-0.02312 -7.15e-4,-0.04177 0.01499,-0.04392 0.0064,-8.73e-4 0.01421,0.0021 0.02222,0.0072 0.0029,-0.0026 0.0072,-0.0036 0.01137,-0.0047 0.0025,-0.01158 0.01171,-0.01947 0.02377,-0.01964 5.03e-4,-7e-6 3.17e-4,-2e-5 0.0016,0 -0.0019,-0.01594 0.0066,-0.02844 0.02119,-0.02946 0.0033,-2.28e-4 0.0072,0.0011 0.01085,0.0021 0.0037,-0.0047 0.0091,-0.0078 0.0155,-0.0088 0.01121,-0.0016 0.02503,0.0035 0.03876,0.0186 10e-4,0.0011 0.0021,0.002 0.0031,0.0031 0.0042,0.0051 0.009,0.0102 0.01292,0.0155 0.0063,0.0077 0.01249,0.01547 0.01809,0.02377 0.0067,0.0093 0.01345,0.01862 0.02015,0.0279 0.0057,0.007 0.0122,0.01334 0.0186,0.01964 0.0076,0.0077 0.01512,0.01507 0.02222,0.02325 0.0081,0.0087 0.01597,0.01744 0.02377,0.02636 0.0084,0.0091 0.01674,0.01847 0.02584,0.02687 0.0082,0.0076 0.01635,0.01547 0.02635,0.02067 0.01051,0.0071 0.02014,0.01509 0.02894,0.02429 0.02978,0.03124 0.01544,0.06246 -0.01034,0.06046 2.91e-4,3.96e-4 0.001,9.52e-4 0.001,10e-4 0.0077,0.01119 0.01322,0.02396 0.01912,0.03618 0.02575,0.05345 -0.02855,0.07931 -0.05426,0.02584 -0.0031,-0.0065 -0.0065,-0.01277 -0.0098,-0.01912 -2.91e-4,0.0111 -0.0059,0.01934 -0.01499,0.02274 0.0038,0.0056 0.0082,0.01087 0.01188,0.01654 0.0046,0.0068 0.0039,0.0051 0.0036,0.0047 -7.6e-5,-4.6e-5 9.26e-4,0.0012 0.001,0.0021 4.76e-4,6.62e-4 1.92e-4,1.69e-4 0.0021,0.0026 1.84e-4,2.64e-4 -1.7e-5,0.0011 5.3e-4,0.0016 -4.24e-4,-6.35e-4 -0.0011,-0.0015 -0.0016,-0.0021 -0.01774,-0.02276 -0.01946,-0.0023 -0.02067,0.01912 0.01031,0.0094 0.02048,0.01879 0.03049,0.02842 0.0051,0.0054 0.01074,0.0098 0.01654,0.01447 0.04617,0.03724 0.0083,0.08399 -0.03772,0.04651 -0.0071,-0.0057 -0.01427,-0.01159 -0.02067,-0.01809 -0.0094,-0.0091 -0.01882,-0.01799 -0.02842,-0.02687 -0.0055,0.0032 -0.01273,0.0043 -0.02067,0 -0.0029,0.0021 -0.0067,0.0031 -0.01085,0.0031 0.0117,0.01291 0.02335,0.02587 0.03514,0.03876 0.0096,0.01004 0.01827,0.0211 0.02687,0.03204 0.0174,0.02226 -0.0054,0.03986 -0.02274,0.01757 -0.0081,-0.01037 -0.01622,-0.02099 -0.02532,-0.03049 -0.0091,-0.01 -0.01826,-0.01997 -0.02739,-0.02997 -0.0039,0.0088 -0.0149,0.01416 -0.02791,0.0077 0.01018,0.01207 0.02051,0.02388 0.03049,0.03617 0.07636,0.09383 0.02302,0.174907 -0.05116,0.155029 -0.0026,0.0069 -0.0063,0.01338 -0.0093,0.02015 v 5.29e-4 c -2.24e-4,0.0244 -0.01233,0.04415 -0.03152,0.05478 -0.0039,0.0055 -0.007,0.01128 -0.01137,0.01654 -0.01869,0.01258 -0.03488,0.03082 -0.05633,0.03772 -0.0058,0.0019 -0.01146,0.003 -0.01705,0.0041 h 6.585143 V 7.9250994 c -0.02058,0.020616 -0.04168,0.040735 -0.06356,0.059945 -0.04388,0.03851 -0.0899,0.075032 -0.14056,0.1043864 -0.04381,0.025601 -0.08752,0.051004 -0.13126,0.076481 -0.0024,0.02567 -0.01455,0.04967 -0.03049,0.07028 -0.02217,0.028164 -0.0466,0.054134 -0.07183,0.079582 -0.02344,0.024125 -0.04725,0.048044 -0.06821,0.074414 -0.02759,0.035337 -0.05587,0.070353 -0.08682,0.1028359 -0.03436,0.036809 -0.06967,0.07269 -0.102838,0.1105877 -0.03295,0.0374 -0.06553,0.075148 -0.09715,0.1136883 -0.03673,0.042402 -0.07617,0.082304 -0.117824,0.1198891 -0.03997,0.03801 -0.07888,0.076737 -0.116271,0.1173057 -0.04571,0.048301 -0.09288,0.095428 -0.136425,0.1457275 -0.03927,0.042917 -0.07897,0.085052 -0.116271,0.129708 -0.03238,0.039289 -0.06533,0.078174 -0.100253,0.1152385 -0.0019,0.0031 -0.0036,0.00631 -0.0057,0.0093 -0.0016,0.0022 -0.0036,0.00405 -0.0052,0.0062 0.0086,0.010655 0.0172,0.021349 0.02585,0.032039 0.0068,0.00833 0.01336,0.016992 0.02016,0.025321 0.09971,0.1228431 -0.02432,0.2236179 -0.124023,0.100769 -0.0069,-0.00851 -0.01376,-0.017328 -0.02066,-0.025839 -0.0048,-0.00601 -0.0096,-0.012084 -0.01447,-0.018087 -0.0031,0.00308 -0.0062,0.00624 -0.0093,0.0093 -0.03695,0.036454 -0.07332,0.073987 -0.11162,0.1090372 -0.04661,0.043135 -0.09448,0.084184 -0.142629,0.1255739 -0.05273,0.044109 -0.107617,0.085807 -0.161745,0.1281576 -0.04574,0.038946 -0.08949,0.079811 -0.132292,0.1219565 -0.04296,0.041246 -0.08647,0.082305 -0.132294,0.1204063 -0.03942,0.03437 -0.07987,0.06733 -0.113687,0.107487 -0.02561,0.02799 -0.04932,0.05778 -0.07493,0.08578 -0.02381,0.02544 -0.04969,0.04892 -0.07545,0.07235 -0.01852,0.01554 -0.03758,0.03093 -0.05684,0.04547 0.007,0.0048 0.01365,0.0099 0.02066,0.01447 0.132199,0.08692 0.04345,0.220835 -0.08837,0.133326 -0.01064,-0.0071 -0.02119,-0.01423 -0.03152,-0.0217 0.0024,0.0033 0.0049,0.0064 0.0072,0.0098 0.08898,0.130831 -0.04306,0.213225 -0.135393,0.08475 -0.01053,-0.01467 -0.02119,-0.02929 -0.03307,-0.04289 -0.01617,-0.01609 -0.03368,-0.03032 -0.05116,-0.04496 -0.02384,-0.01983 -0.04403,-0.04324 -0.06356,-0.06718 -0.01508,-0.01973 -0.03102,-0.03859 -0.04599,-0.05839 -0.01167,-0.01314 -0.02432,-0.02581 -0.03566,-0.03927 -0.01349,-0.01536 -0.02652,-0.03146 -0.03979,-0.04703 -0.01318,-0.01596 -0.02532,-0.03269 -0.03721,-0.04961 -0.0597,-0.08495 -0.02334,-0.153916 0.0341,-0.154513 0.0254,-2.64e-4 0.05485,0.01392 0.08217,0.04496 0.0086,-0.0048 0.01879,-0.0074 0.03049,-0.0083 7.94e-4,-0.0052 0.0037,-0.009 0.01241,-0.0093 0.0072,-2.64e-4 0.01725,0.0016 0.03152,0.0057 0.0085,0.0024 0.01749,0.0041 0.02585,0.0072 0.01159,0.0044 0.02138,0.01144 0.03152,0.01809 0.0066,-0.01351 0.01529,-0.02617 0.02687,-0.03721 0.01511,-0.01335 0.03048,-0.02624 0.04496,-0.04031 0.02807,-0.02649 0.0567,-0.05283 0.08682,-0.077 0.03419,-0.026803 0.07094,-0.050241 0.105939,-0.075964 0.03114,-0.023392 0.06139,-0.047834 0.09198,-0.071831 -0.009,-0.00596 -0.01778,-0.012332 -0.02687,-0.018087 -0.03165,-0.020106 -0.06361,-0.039291 -0.09457,-0.060461 -0.102026,-0.06978 -0.08352,-0.1687722 -0.0062,-0.1689818 0.02164,-6.08e-5 0.04806,0.00764 0.07751,0.025839 0.01262,0.0078 0.02514,0.015854 0.03772,0.02377 -0.05719,-0.077053 -0.02641,-0.147383 0.03049,-0.1498619 0.02735,-0.00119 0.0604,0.013488 0.09302,0.050643 0.0032,0.00367 0.007,0.00675 0.01035,0.010335 -0.0071,-0.033431 -0.0028,-0.045829 0.0083,-0.046509 0.02754,-0.00169 0.0962,0.068961 0.130741,0.072347 0.0069,-0.0083 0.01373,-0.016592 0.02066,-0.024805 2.64e-4,-0.00631 -1.3e-5,-0.014065 -0.0016,-0.023254 -2.54e-4,-0.00201 -7.93e-4,-0.00369 -5.29e-4,-0.00568 2.65e-4,6.085e-4 0.0013,0.00169 0.0016,0.00206 7.93e-4,0.00135 0.0021,0.00273 0.0031,0.00414 0.0024,0.00391 0.0048,0.00796 0.0072,0.011885 0.0013,-0.00132 0.0024,-0.00272 0.0036,-0.00414 -0.0167,-0.034269 -0.0033,-0.085392 0.05995,-0.1245402 0.02837,-0.017558 0.05415,-0.039091 0.0801,-0.059945 0.01386,-0.012441 0.02606,-0.027323 0.03824,-0.041341 0.01982,-0.026868 0.03983,-0.053549 0.06201,-0.078548 0.0226,-0.026323 0.04608,-0.051399 0.0677,-0.078548 0.02424,-0.029311 0.04862,-0.058803 0.07441,-0.086817 0.005,-0.028749 0.02498,-0.048736 0.05219,-0.053227 h 5.29e-4 c 0.01198,-0.010912 0.02424,-0.021778 0.03772,-0.031006 0.03745,-0.026382 0.07698,-0.050103 0.118857,-0.06873 -0.0087,-0.00786 -0.01762,-0.015526 -0.02791,-0.021188 -0.01886,-0.010684 -0.03784,-0.020897 -0.05581,-0.033073 -0.02442,-0.016484 -0.04801,-0.033935 -0.07028,-0.053227 -0.0186,-0.016822 -0.0091,-0.00834 -0.02739,-0.025839 -0.0821,-0.078684 -0.04792,-0.1606685 0.02016,-0.1596803 0.02664,3.969e-4 0.05843,0.01352 0.09043,0.044442 0.01434,0.013832 0.007,0.00689 0.02273,0.021188 0.01712,0.015674 0.03639,0.027934 0.0553,0.041341 0.01437,0.010604 0.03145,0.017838 0.04651,0.027389 0.01238,0.00751 0.02424,0.015957 0.03566,0.024805 0.01164,-0.012314 0.02376,-0.024172 0.03514,-0.03669 0.04203,-0.047044 0.07923,-0.097846 0.11834,-0.147278 0.04241,-0.056562 0.09131,-0.1076253 0.139528,-0.1591635 0.04127,-0.044028 0.08531,-0.085477 0.131257,-0.1245402 0.0486,-0.038658 0.09577,-0.07855 0.142111,-0.1198894 0.04069,-0.037219 0.08195,-0.073617 0.120922,-0.1126546 0.02895,-0.029233 0.05575,-0.060756 0.08423,-0.090434 0.03514,-0.036103 0.07326,-0.069093 0.111104,-0.1023194 0.03903,-0.034012 0.07722,-0.069451 0.11679,-0.1028359 0.03513,-0.029571 0.07256,-0.05575 0.110069,-0.082166 0.0359,-0.02445 0.07227,-0.047902 0.108522,-0.07183 0.02003,-0.0136 0.0395,-0.027857 0.05891,-0.042375 z m 4.368726,2.6303313 c -0.0011,0.0011 -0.0024,0.002 -0.0036,0.0031 2.65e-4,-1.37e-4 0.0013,-1.37e-4 0.0016,-5.29e-4 0.0011,-0.0011 0.0013,-0.0017 0.0021,-0.0026 z m -4.368726,4.050916 v 0.02119 c 0.02497,0.01622 0.04942,0.03323 0.0739,0.05013 -0.021,-0.02126 -0.04265,-0.0422 -0.06459,-0.06253 z m 0,0.216008 v 0.134875 h 0.181384 c -0.05941,-0.04634 -0.119616,-0.09169 -0.181384,-0.134875 z" />
    </clipPath>
    <clipPath
       clipPathUnits="userSpaceOnUse"
       id="clipPath236">
      <path
         id="path237"
         style="fill:#ff0000;fill-opacity:1;fill-rule:nonzero;stroke:none;stroke-width:0.264583"
         d="m 26.346201,7.8062435 v 5.4844215 h 5.483903 V 10.081041 C 31.73645,10.020181 31.641509,9.9418535 31.547434,9.8417788 31.327613,9.6079178 31.094121,9.3872359 30.86479,9.1627501 c 0.02994,0.1104615 -0.04699,0.1938251 -0.158131,0.1751833 -0.003,0.00618 -0.0061,0.012102 -0.0098,0.017571 0.02148,0.038141 0.04261,0.076479 0.06201,0.1157553 0.117264,0.2373511 -0.05872,0.3842502 -0.201538,0.2599325 0.153667,0.25961 -0.105902,0.4184148 -0.272336,0.1648479 -0.02633,0.065235 -0.09879,0.095744 -0.181382,0.065629 -0.05916,0.016555 -0.139967,-0.00696 -0.220144,-0.093017 -0.02048,-0.02199 -0.03997,-0.044814 -0.05943,-0.067696 -0.01625,-0.018045 -0.03204,-0.036084 -0.04754,-0.054777 -0.02864,-0.033849 -0.04432,-0.075682 -0.06046,-0.1162723 -0.0071,-0.016825 -0.0186,-0.031057 -0.02894,-0.045992 -0.01442,-0.019532 -0.02979,-0.038511 -0.04444,-0.057878 -0.0098,-0.012938 -0.01834,-0.025665 -0.02585,-0.03824 -0.0281,-0.031996 -0.05621,-0.063958 -0.08423,-0.096118 -0.142904,-0.1640309 -0.07362,-0.31471 0.05116,-0.3152262 0.0054,-2.25e-5 0.01095,4.762e-4 0.01654,0.00103 -0.07978,-0.1210477 -0.01601,-0.2382658 0.104386,-0.2377117 0.04962,2.286e-4 0.108733,0.020145 0.171567,0.068213 0.04574,0.03499 0.02178,0.016237 0.07235,0.05581 0.02484,0.02181 0.0479,0.045473 0.07131,0.06873 -0.0011,-0.086177 0.03099,-0.1641978 0.0708,-0.2428794 l 0.01447,-0.026355 C 30.160316,8.6629799 30.232545,8.6197861 30.294793,8.6180798 30.225014,8.5554008 30.15476,8.4930636 30.083436,8.4320446 29.838313,8.2223178 29.709995,8.0031457 29.670543,7.8062427 Z" />
    </clipPath>
    <rect
       x="216.25301"
       y="41.49324"
       width="164.50848"
       height="33.682747"
       id="rect245" />
    <rect
       x="216.25301"
       y="41.49324"
       width="164.50848"
       height="33.682747"
       id="rect246" />
  </defs>
  <g
     inkscape:groupmode="layer"
     id="layer2"
     inkscape:label="Yellow">
    <path
       style="fill:#ffca14;fill-opacity:1;stroke:#ffca14;stroke-width:0.264583;stroke-opacity:1"
       d="M 1.335536,21.473498 8.12612,21.441208"
       id="path3-7"
       sodipodi:nodetypes="cc" />
    <path
       style="fill:#ffca14;fill-opacity:1;stroke:#ffca14;stroke-width:0.265066;stroke-opacity:1"
       d="m 8.042668,21.477465 8.956217,-9.160474 1.002186,-1.003417"
       id="path4"
       sodipodi:nodetypes="ccc" />
    <path
       style="fill:#ffca14;fill-opacity:1;stroke:#ffca14;stroke-width:0.264583;stroke-opacity:1"
       d="M 18.010699,11.455935 16.010849,9.419052 14.588014,8.000962"
       id="path5"
       sodipodi:nodetypes="ccc" />
    <path
       style="fill:#ffca14;fill-opacity:1;stroke:#ffca14;stroke-width:0.264583;stroke-opacity:1"
       d="M 1.2042908,21.525258 14.701028,8.049395"
       id="path6"
       sodipodi:nodetypes="cc" />
    <path
       style="fill:#ffca14;fill-opacity:1;stroke:#ffca14;stroke-width:0.064579;stroke-opacity:1"
       d="m 8.163487,14.815656 6.521396,-6.488571 1.504822,1.522161 1.504823,1.52216 -1.311086,1.334943 c -0.721097,0.734219 -2.907573,2.969104 -4.858836,4.96641 L 7.976855,21.304227 H 4.809473 1.64209 Z"
       id="path249" />
    <path
       style="fill:#ffca14;fill-opacity:1;stroke:#ffca14;stroke-width:0.00103353;stroke-opacity:1"
       d="m 12.282454,10.661264 v -0.0094 l 0.612304,-0.611247 0.612305,-0.611248 0.01169,-2.91e-4 0.01169,-2.91e-4 -0.09767,0.09753 c -0.08337,0.08325 -1.099352,1.093988 -1.13714,1.13127 l -0.01318,0.013 z"
       id="path250" />
    <path
       style="fill:#ffca14;fill-opacity:1;stroke:#ffca14;stroke-width:0.264583;stroke-opacity:1"
       d="M 8.764321,14.155208 14.667838,8.235154"
       id="path251" />
    <path
       style="fill:#ffca14;fill-opacity:1;stroke:#ffca14;stroke-width:0.264583;stroke-opacity:1"
       d="m 14.585156,8.169009 3.125391,3.158464"
       id="path252" />
    <path
       style="fill:#ffca14;fill-opacity:1;stroke:#ffca14;stroke-width:0.264583;stroke-opacity:1"
       d="M 17.776693,11.310936 7.887889,21.447788"
       id="path253" />
    <path
       style="fill:#ffca14;fill-opacity:1;stroke:#ffca14;stroke-width:0.264583;stroke-opacity:1"
       d="m 1.521351,21.348569 6.250783,-0.03307"
       id="path254" />
  </g>
  <g
     inkscape:groupmode="layer"
     id="layer3"
     inkscape:label="Red">
    <path
       style="fill:#fd2c60;fill-opacity:1;stroke:#fd2c60;stroke-width:0.264583;stroke-opacity:1"
       d="m 14.494629,21.428113 h 0.25037 1.675444 4.776221"
       id="path7-5"
       sodipodi:nodetypes="cccc" />
    <path
       style="fill:#fd2c60;fill-opacity:1;stroke:#fd2c60;stroke-width:0.264583;stroke-opacity:1"
       d="M 21.088174,21.445346 31.284696,11.359067"
       id="path8"
       sodipodi:nodetypes="cc" />
    <path
       style="fill:#fd2c60;fill-opacity:1;stroke:#fd2c60;stroke-width:0.264583;stroke-opacity:1"
       d="M 14.396417,21.445346 24.665354,11.326778"
       id="path9"
       sodipodi:nodetypes="cc" />
    <path
       style="fill:#fd2c60;fill-opacity:1;stroke:#fd2c60;stroke-width:0.264583;stroke-opacity:1"
       d="M 26.439581,13.196959 31.736629,7.8999094"
       id="path198"
       clip-path="url(#clipPath236)"
       transform="matrix(1.025239,0,0,1.010152,-9.2693246,-8.5452198)" />
    <path
       style="fill:#fd2c60;fill-opacity:1;stroke:#fd2c60;stroke-width:0.26902;stroke-opacity:1"
       d="M 24.752489,11.418515 17.974467,4.731866"
       id="path199" />
    <path
       style="fill:#fd2c60;fill-opacity:1;stroke:#fd2c60;stroke-width:0.26755;stroke-opacity:1"
       d="M 31.214486,11.304883 21.178285,1.3466458"
       id="path200" />
    <path
       style="fill:#fd2c60;fill-opacity:1;stroke:#fd2c60;stroke-width:0.064579;stroke-opacity:1"
       d="m 14.910909,21.211504 c 0,-0.01548 2.230396,-2.227906 4.956435,-4.916505 2.726039,-2.688599 4.956435,-4.924668 4.956435,-4.969042 0,-0.04438 -1.482088,-1.541724 -3.293526,-3.327442 C 19.718812,6.212796 18.22899,4.733109 18.219537,4.710321 18.210137,4.687531 18.885602,3.991234 19.720685,3.16299 L 21.239021,1.6570918 26.115044,6.48454 c 2.681814,2.655097 4.876026,4.848896 4.876026,4.87511 0,0.02622 -2.23414,2.259937 -4.964754,4.96383 l -4.964757,4.916168 h -3.075324 c -1.691429,0 -3.075326,-0.01267 -3.075326,-0.02814 z"
       id="path248" />
    <path
       style="fill:#ffca14;fill-opacity:1;stroke:#fd2c60;stroke-width:0.264583;stroke-opacity:1"
       d="m 14.732328,21.280433 6.244086,0.02339"
       id="path255" />
    <path
       style="fill:#ffca14;fill-opacity:1;stroke:#fd2c60;stroke-width:0.264583;stroke-opacity:1"
       d="m 15.012961,21.140117 8.091587,-8.114974"
       id="path256" />
    <path
       style="fill:#ffca14;fill-opacity:1;stroke:#fd2c60;stroke-width:0.264583;stroke-opacity:1"
       d="m 14.732328,21.140117 0.397564,-0.07016"
       id="path257" />
    <path
       style="fill:#ffca14;fill-opacity:1;stroke:#fd2c60;stroke-width:0.264583;stroke-opacity:1"
       d="M 20.976414,21.257047 31.032432,11.317959"
       id="path258" />
    <path
       style="fill:#ffca14;fill-opacity:1;stroke:#fd2c60;stroke-width:0.264583;stroke-opacity:1"
       d="m 18.076537,4.652924 6.618266,6.501332"
       id="path259" />
    <path
       style="fill:#ffca14;fill-opacity:1;stroke:#fd2c60;stroke-width:0.264583;stroke-opacity:1"
       d="M 18.19347,4.606151 21.23366,1.659504"
       id="path260" />
    <path
       style="fill:#ffca14;fill-opacity:1;stroke:#fd2c60;stroke-width:0.264583;stroke-opacity:1"
       d="m 21.163503,1.56596 9.822156,9.751999"
       id="path261" />
    <path
       style="fill:#fd2c60;stroke:#fd2c60;stroke-width:0.264584;fill-opacity:1;stroke-opacity:1"
       d="m 30.977815,11.269177 0.137393,0.131547"
       id="path1" />
    <path
       style="fill:#fd2c60;fill-opacity:1;stroke:#fd2c60;stroke-width:0.264584;stroke-opacity:1"
       d="m 31.10059,11.178556 0.271865,0.271864"
       id="path2" />
    <path
       style="fill:#fd2c60;fill-opacity:1;stroke:#fd2c60;stroke-width:0.264584;stroke-opacity:1"
       d="m 20.869026,21.232828 0.181901,0.132292 v 0"
       id="path3" />
  </g>
  <g
     inkscape:groupmode="layer"
     id="layer1"
     inkscape:label="Green">
    <path
       style="fill:#29dcb2;fill-opacity:1;stroke:#29dcb2;stroke-width:0.264584;stroke-opacity:1"
       d="m 27.516687,21.431266 h 6.846099"
       id="path7" />
    <path
       style="fill:#29dcb2;fill-opacity:1;stroke:#29dcb2;stroke-width:0.264584;stroke-opacity:1"
       d="M 27.516687,21.431266 37.570861,11.360555"
       id="path10" />
    <path
       style="fill:#29dcb2;fill-opacity:1;stroke:#29dcb2;stroke-width:0.264584;stroke-opacity:1"
       d="M 37.537788,11.344019 27.814344,1.3229176"
       id="path11" />
    <path
       style="fill:#29dcb2;fill-opacity:1;stroke:#29dcb2;stroke-width:0.264584;stroke-opacity:1"
       d="m 27.880489,1.3559906 h 6.482297"
       id="path12" />
    <path
       style="fill:#29dcb2;fill-opacity:1;stroke:#29dcb2;stroke-width:0.264584;stroke-opacity:1"
       d="M 34.263567,21.398193 44.218522,11.377092"
       id="path13" />
    <path
       style="fill:#29dcb2;fill-opacity:1;stroke:#29dcb2;stroke-width:0.264584;stroke-opacity:1"
       d="M 44.18545,11.377092 34.29664,1.3559906"
       id="path14" />
    <path
       style="fill:#29dcb2;fill-opacity:1;stroke:#29dcb2;stroke-width:0.176777;stroke-opacity:1"
       d="m 123.99715,61.874297 c 15.51279,-15.535279 18.49709,-18.601441 18.31655,-18.818973 -0.11862,-0.142933 -0.16794,-0.337117 -0.10959,-0.431521 0.0583,-0.0944 -7.88976,-8.40855 -17.66245,-18.475878 -9.7727,-10.06733 -17.76854,-18.3462734 -17.76854,-18.3976531 0,-0.05138 5.07307,-0.093418 11.27347,-0.093418 h 11.27348 l 18.42495,18.6845191 18.42494,18.684519 -1.90028,1.950848 c -1.04516,1.072965 -9.38949,9.489654 -18.54296,18.703752 l -16.64269,16.752904 h -11.80955 -11.80956 z"
       id="path15"
       transform="scale(0.26458353)" />
    <path
       style="fill:#29dcb2;fill-opacity:1;stroke:#29dcb2;stroke-width:0.264584;stroke-opacity:1"
       d="M 27.759302,21.328124 37.651623,11.295487"
       id="path16" />
    <path
       style="fill:#29dcb2;fill-opacity:1;stroke:#29dcb2;stroke-width:0.264584;stroke-opacity:1"
       d="m 43.965869,11.435803 -9.845547,9.868935"
       id="path17" />
    <path
       style="fill:#29dcb2;fill-opacity:1;stroke:#29dcb2;stroke-width:0.264584;stroke-opacity:1"
       d="m 28.156865,1.4499383 9.471371,9.7753907"
       id="path18" />
    <path
       style="fill:#29dcb2;fill-opacity:1;stroke:#29dcb2;stroke-width:0.264584;stroke-opacity:1"
       d="m 28.332261,1.490864 0.567113,0.00585"
       id="path19" />
    <path
       style="fill:#29dcb2;fill-opacity:1;stroke:#29dcb2;stroke-width:0.264584;stroke-opacity:1"
       d="M 43.987012,11.459774 34.197421,1.4386729"
       id="path20" />
    <path
       style="fill:#29dcb2;fill-opacity:1;stroke:#29dcb2;stroke-width:0.264584;stroke-opacity:1"
       d="m 44.07383,11.286141 0.223242,0.186035"
       id="path21" />
  </g>
  <g
     inkscape:groupmode="layer"
     id="layer4"
     inkscape:label="Grid" />
  <g
     inkscape:groupmode="layer"
     id="layer5"
     inkscape:label="Text">
    <text
       xml:space="preserve"
       transform="matrix(0.26458339,0,0,0.26458339,-10.422399,0.15422466)"
       id="text245"
       style="font-style:normal;font-variant:normal;font-weight:normal;font-stretch:normal;font-size:29.3333px;font-family:'Cascadia Code';-inkscape-font-specification:'Cascadia Code';white-space:pre;shape-inside:url(#rect245);display:inline;fill:#fd2c60;fill-opacity:1;stroke:#000000;stroke-opacity:1"><tspan
         x="216.25391"
         y="68.578143"
         id="tspan9"><tspan
           style="fill:#000000"
           id="tspan8">SNIPER</tspan></tspan></text>
    <text
       xml:space="preserve"
       transform="matrix(0.26458339,0,0,0.26458339,-10.460228,-8.3596742)"
       id="text246"
       style="font-style:normal;font-variant:normal;font-weight:normal;font-stretch:normal;font-size:29.3333px;font-family:'Cascadia Code';-inkscape-font-specification:'Cascadia Code';white-space:pre;shape-inside:url(#rect246);display:inline;fill:#fd2c60;fill-opacity:1;stroke:#000000;stroke-opacity:1"><tspan
         x="216.25391"
         y="68.578143"
         id="tspan11"><tspan
           style="fill:#000000"
           id="tspan10">SEGMENT</tspan></tspan></text>
    <text
       xml:space="preserve"
       transform="matrix(0.26458339,0,0,0.26458339,-8.5123363,-8.7406573)"
       id="text247"
       style="font-style:normal;font-variant:normal;font-weight:normal;font-stretch:normal;font-size:6.66667px;font-family:'Cascadia Code';-inkscape-font-specification:'Cascadia Code';white-space:pre;shape-inside:url(#rect247);display:inline;fill:#000000;fill-opacity:1;stroke:#000000;stroke-opacity:1"><tspan
         x="320.32617"
         y="86.063668"
         id="tspan12">P&#10;</tspan><tspan
         x="320.32617"
         y="94.397004"
         id="tspan13">R&#10;</tspan><tspan
         x="320.32617"
         y="102.73034"
         id="tspan14">O</tspan></text>
  </g>
</svg>
